<svg width="710" height="246" viewBox="0 0 710 246" fill="none" xmlns="http://www.w3.org/2000/svg">
<path d="M282.226 142.16C282.226 147.04 281.146 151.48 278.986 155.48C276.826 159.4 273.386 162.52 268.666 164.84C264.026 167.08 258.066 168.2 250.786 168.2C247.026 168.2 243.746 168 240.946 167.6C238.226 167.2 235.666 166.64 233.266 165.92C230.946 165.12 228.506 164.12 225.946 162.92V144.32C230.266 146.32 234.626 148 239.026 149.36C243.506 150.72 247.586 151.4 251.266 151.4C253.426 151.4 255.186 151.08 256.546 150.44C257.906 149.72 258.906 148.8 259.546 147.68C260.186 146.48 260.506 145.12 260.506 143.6C260.506 141.76 260.026 140.2 259.066 138.92C258.186 137.56 256.666 136.28 254.506 135.08C252.346 133.8 249.506 132.44 245.986 131C243.026 129.72 240.346 128.36 237.946 126.92C235.546 125.4 233.506 123.68 231.826 121.76C230.146 119.76 228.826 117.4 227.866 114.68C226.986 111.88 226.546 108.6 226.546 104.84C226.546 99.48 227.826 95 230.386 91.4C232.946 87.72 236.466 84.92 240.946 83C245.506 81.08 250.786 80.12 256.786 80.12C262.066 80.12 266.786 80.68 270.946 81.8C275.186 82.92 278.986 84.36 282.346 86.12L275.626 102.08C272.266 100.4 268.906 99.12 265.546 98.24C262.186 97.28 259.066 96.8 256.186 96.8C254.266 96.8 252.706 97.12 251.506 97.76C250.306 98.32 249.426 99.16 248.866 100.28C248.306 101.32 248.026 102.56 248.026 104C248.026 105.68 248.506 107.16 249.466 108.44C250.506 109.64 252.186 110.88 254.506 112.16C256.826 113.44 259.946 115.08 263.866 117.08C267.786 118.92 271.106 120.96 273.826 123.2C276.626 125.36 278.706 127.96 280.066 131C281.506 133.96 282.226 137.68 282.226 142.16ZM317.988 152.12C319.908 152.12 321.628 151.92 323.148 151.52C324.748 151.12 326.428 150.6 328.188 149.96V164.84C325.948 165.8 323.508 166.6 320.868 167.24C318.228 167.88 314.868 168.2 310.788 168.2C306.788 168.2 303.228 167.56 300.108 166.28C297.068 164.92 294.668 162.64 292.908 159.44C291.228 156.16 290.388 151.64 290.388 145.88V116.24H282.828V107.84L292.428 101.36L298.068 87.44H311.988V101.12H327.468V116.24H311.988V145.16C311.988 147.48 312.508 149.24 313.548 150.44C314.588 151.56 316.068 152.12 317.988 152.12ZM392.705 133.88C392.705 139.4 391.985 144.28 390.545 148.52C389.185 152.76 387.145 156.36 384.425 159.32C381.705 162.28 378.425 164.52 374.585 166.04C370.745 167.48 366.385 168.2 361.505 168.2C357.025 168.2 352.865 167.48 349.025 166.04C345.185 164.52 341.905 162.32 339.185 159.44C336.465 156.48 334.345 152.88 332.825 148.64C331.305 144.32 330.545 139.4 330.545 133.88C330.545 126.6 331.785 120.44 334.265 115.4C336.745 110.36 340.345 106.52 345.065 103.88C349.785 101.24 355.385 99.92 361.865 99.92C367.865 99.92 373.185 101.24 377.825 103.88C382.465 106.52 386.105 110.36 388.745 115.4C391.385 120.44 392.705 126.6 392.705 133.88ZM352.385 133.88C352.385 137.96 352.705 141.4 353.345 144.2C353.985 147 354.985 149.12 356.345 150.56C357.705 151.92 359.505 152.6 361.745 152.6C363.985 152.6 365.745 151.92 367.025 150.56C368.385 149.12 369.345 147 369.905 144.2C370.545 141.4 370.865 137.96 370.865 133.88C370.865 129.8 370.545 126.4 369.905 123.68C369.345 120.96 368.385 118.92 367.025 117.56C365.665 116.2 363.865 115.52 361.625 115.52C358.265 115.52 355.865 117.08 354.425 120.2C353.065 123.24 352.385 127.8 352.385 133.88ZM427.344 168.2C421.024 168.2 415.504 167.04 410.784 164.72C406.144 162.32 402.544 158.64 399.984 153.68C397.504 148.64 396.264 142.2 396.264 134.36C396.264 126.36 397.664 119.84 400.464 114.8C403.344 109.68 407.264 105.92 412.224 103.52C417.184 101.12 422.784 99.92 429.024 99.92C432.784 99.92 436.424 100.36 439.944 101.24C443.544 102.12 446.624 103.24 449.184 104.6L443.304 119.6C440.984 118.48 438.864 117.6 436.944 116.96C435.024 116.32 432.984 116 430.824 116C428.344 116 426.144 116.68 424.224 118.04C422.304 119.32 420.784 121.32 419.664 124.04C418.624 126.76 418.104 130.16 418.104 134.24C418.104 138.32 418.624 141.68 419.664 144.32C420.784 146.88 422.304 148.8 424.224 150.08C426.144 151.36 428.344 152 430.824 152C433.704 152 436.544 151.48 439.344 150.44C442.224 149.4 444.864 148 447.264 146.24V162.8C444.704 164.56 441.784 165.92 438.504 166.88C435.304 167.76 431.584 168.2 427.344 168.2ZM475.324 114.32C475.324 116.88 475.204 119.6 474.964 122.48C474.804 125.28 474.524 128 474.124 130.64H474.604C475.004 129.6 475.524 128.52 476.164 127.4C476.884 126.28 477.684 125.16 478.564 124.04C479.444 122.84 480.324 121.64 481.204 120.44L495.364 101.12H519.244L497.524 129.44L520.564 167H496.084L482.284 141.8L475.324 147.68V167H453.724V75.8H475.324V114.32ZM555.621 117.92H590.301V163.16C586.061 164.68 581.261 165.92 575.901 166.88C570.621 167.76 565.061 168.2 559.221 168.2C551.461 168.2 544.661 166.56 538.821 163.28C532.981 160 528.421 155.08 525.141 148.52C521.941 141.96 520.341 133.8 520.341 124.04C520.341 115.08 521.941 107.32 525.141 100.76C528.341 94.2 533.061 89.12 539.301 85.52C545.621 81.92 553.421 80.12 562.701 80.12C567.741 80.12 572.501 80.6 576.981 81.56C581.461 82.52 585.341 83.8 588.621 85.4L581.781 101.6C578.901 100.16 575.901 99.04 572.781 98.24C569.661 97.44 566.341 97.04 562.821 97.04C558.021 97.04 554.101 98.24 551.061 100.64C548.101 102.96 545.981 106.2 544.701 110.36C543.421 114.44 542.781 119.12 542.781 124.4C542.781 129.92 543.461 134.68 544.821 138.68C546.261 142.68 548.341 145.8 551.061 148.04C553.781 150.2 557.101 151.28 561.021 151.28C561.901 151.28 562.901 151.24 564.021 151.16C565.221 151 566.341 150.84 567.381 150.68C568.501 150.52 569.381 150.36 570.021 150.2V134.36H555.621V117.92ZM637.138 99.92C638.338 99.92 639.578 100 640.858 100.16C642.138 100.24 643.098 100.36 643.738 100.52L641.818 119.48C641.098 119.32 640.178 119.2 639.058 119.12C637.938 118.96 636.418 118.88 634.498 118.88C633.138 118.88 631.658 119.12 630.058 119.6C628.538 120 627.098 120.76 625.738 121.88C624.378 122.92 623.258 124.44 622.378 126.44C621.498 128.36 621.058 130.88 621.058 134V167H599.458V101.12H615.538L618.898 111.92H619.858C621.058 109.68 622.538 107.68 624.298 105.92C626.058 104.08 628.018 102.64 630.178 101.6C632.418 100.48 634.738 99.92 637.138 99.92ZM703.721 133.88C703.721 139.4 703.001 144.28 701.561 148.52C700.2 152.76 698.16 156.36 695.441 159.32C692.72 162.28 689.44 164.52 685.6 166.04C681.761 167.48 677.401 168.2 672.52 168.2C668.04 168.2 663.88 167.48 660.04 166.04C656.2 164.52 652.92 162.32 650.2 159.44C647.48 156.48 645.36 152.88 643.84 148.64C642.32 144.32 641.56 139.4 641.56 133.88C641.56 126.6 642.8 120.44 645.28 115.4C647.76 110.36 651.36 106.52 656.08 103.88C660.8 101.24 666.401 99.92 672.881 99.92C678.881 99.92 684.201 101.24 688.84 103.88C693.48 106.52 697.121 110.36 699.761 115.4C702.401 120.44 703.721 126.6 703.721 133.88ZM663.401 133.88C663.401 137.96 663.72 141.4 664.36 144.2C665 147 666 149.12 667.361 150.56C668.721 151.92 670.52 152.6 672.76 152.6C675 152.6 676.76 151.92 678.04 150.56C679.401 149.12 680.361 147 680.921 144.2C681.561 141.4 681.881 137.96 681.881 133.88C681.881 129.8 681.561 126.4 680.921 123.68C680.361 120.96 679.401 118.92 678.04 117.56C676.681 116.2 674.881 115.52 672.641 115.52C669.28 115.52 666.88 117.08 665.44 120.2C664.08 123.24 663.401 127.8 663.401 133.88Z" fill="#1A1A1A"/>
<path d="M178.158 238.927L97.656 189.606L152.661 154.002L178.158 238.927Z" fill="#FF6611" stroke="#7515D5" stroke-width="6" stroke-miterlimit="10" stroke-linecap="round"/>
<path d="M137.031 38.999L9.97974 71.3487L3 132.809L104.456 193.811L208.236 117.56L137.031 38.999Z" fill="#FF6611" stroke="#7515D5" stroke-width="6" stroke-linecap="round" stroke-linejoin="round"/>
<path d="M104.324 167.272L79.412 153.879L114.985 128.992L49.001 123.635L51.9186 84.1269L124.779 68.1924L148.866 89.5769L103.09 99.9747L170.196 117.534L104.324 167.272Z" fill="white"/>
</svg>
